<?xml version="1.0" encoding="UTF-8"?>
<svg id="Layer_1" data-name="Layer 1" xmlns="http://www.w3.org/2000/svg" xmlns:xlink="http://www.w3.org/1999/xlink" viewBox="0 0 2278.32 1872.62">
  <defs>
    <style>
      .cls-1 {
        fill: url(#linear-gradient-8);
      }

      .cls-2 {
        fill: url(#linear-gradient-7);
      }

      .cls-3 {
        fill: url(#linear-gradient-5);
      }

      .cls-4 {
        fill: url(#linear-gradient-6);
      }

      .cls-5 {
        fill: url(#linear-gradient-4);
      }

      .cls-6 {
        fill: url(#linear-gradient-3);
      }

      .cls-7 {
        fill: url(#linear-gradient-2);
      }

      .cls-8 {
        fill: #f600e3;
      }

      .cls-9 {
        fill: url(#linear-gradient);
      }

      .cls-10 {
        fill: #0e1a3c;
      }

      .cls-11 {
        fill: #56a837;
      }
    </style>
    <linearGradient id="linear-gradient" x1="535.54" y1="643.6" x2="1240.12" y2="254.65" gradientUnits="userSpaceOnUse">
      <stop offset="0" stop-color="#0d2b4d"/>
      <stop offset="1" stop-color="#1879b5"/>
    </linearGradient>
    <linearGradient id="linear-gradient-2" x1="675.28" y1="566.1" x2="1267.04" y2="259.03" gradientUnits="userSpaceOnUse">
      <stop offset="0" stop-color="#0d2b4d"/>
      <stop offset=".26" stop-color="#0f3c63"/>
      <stop offset=".81" stop-color="#15689e"/>
      <stop offset="1" stop-color="#1879b5"/>
    </linearGradient>
    <linearGradient id="linear-gradient-3" x1="923.53" y1="931.16" x2="1989.94" y2="931.16" gradientUnits="userSpaceOnUse">
      <stop offset="0" stop-color="#c5f5a6"/>
      <stop offset=".99" stop-color="#56a837"/>
    </linearGradient>
    <linearGradient id="linear-gradient-4" x1="902.4" y1="1031.31" x2="1816.34" y2="821.93" gradientUnits="userSpaceOnUse">
      <stop offset="0" stop-color="#b6ef98"/>
      <stop offset="0" stop-color="#b4ed96"/>
      <stop offset=".2" stop-color="#92d474"/>
      <stop offset=".39" stop-color="#78c159"/>
      <stop offset=".59" stop-color="#65b346"/>
      <stop offset=".79" stop-color="#59aa3a"/>
      <stop offset="1" stop-color="#56a837"/>
    </linearGradient>
    <linearGradient id="linear-gradient-5" x1="220.57" y1="40.16" x2="208.1" y2="1419.49" gradientUnits="userSpaceOnUse">
      <stop offset="0" stop-color="#1879b5"/>
      <stop offset=".26" stop-color="#146296"/>
      <stop offset=".76" stop-color="#0f3a61"/>
      <stop offset="1" stop-color="#0d2b4d"/>
    </linearGradient>
    <linearGradient id="linear-gradient-6" x1="151.16" y1="1523.04" x2="987.43" y2="1339.42" gradientUnits="userSpaceOnUse">
      <stop offset="0" stop-color="#11b7e1"/>
      <stop offset=".32" stop-color="#0e89bb"/>
      <stop offset="1" stop-color="#081e63"/>
    </linearGradient>
    <linearGradient id="linear-gradient-7" x1="63.79" y1="1413.85" x2="1190.97" y2="1413.85" gradientUnits="userSpaceOnUse">
      <stop offset="0" stop-color="#0c6aab"/>
      <stop offset=".64" stop-color="#083274"/>
      <stop offset="1" stop-color="#07185a"/>
    </linearGradient>
    <linearGradient id="linear-gradient-8" x1="215.86" y1="205.3" x2="215.79" y2="963.94" gradientUnits="userSpaceOnUse">
      <stop offset="0" stop-color="#1879b5"/>
      <stop offset=".28" stop-color="#15659b"/>
      <stop offset=".88" stop-color="#0e3459"/>
      <stop offset=".99" stop-color="#0d2b4d"/>
    </linearGradient>
  </defs>
  <path class="cls-8" d="M724.5,794.59l-.39.28c.13.17.25.35.38.52,0-.51,0-.8,0-.8Z"/>
  <g>
    <g>
      <polygon class="cls-9" points="438.45 887.91 627.38 661.05 1294.06 302.05 1294.06 49.16 438.45 506.47 438.45 887.91"/>
      <path class="cls-11" d="M2225.62,501.98l-215.8,2.58c-291.05-355.4-715.76-202.51-715.76-202.51V49.16l931.56,452.81Z"/>
      <path class="cls-7" d="M627.38,661.05l666.68-359s-318.22-129.45-666.68,359Z"/>
      <path class="cls-6" d="M1787.61,1146.01c-29.26,33.91-67.51,64.7-110.5,88.19-51.23,27.98-109.19,45.58-166.75,45.58-117.53,0-225.71-58.95-292.39-148.63-43.48-55.91-69.66-124.53-69.66-198.92,0-24.88,2.83-49.15,8.13-72.57,33.75-160.1,184.07-279.2,353.92-279.2,102.11,0,208.97,51.63,273.89,121.95,2.23,2.42,4.42,4.85,6.55,7.31l199.14-152.46c-110.7-146.67-281.59-231.68-479.58-231.68-334.69,0-586.29,271.04-586.82,605.6.53,334.56,252.13,605.6,586.82,605.6,199.59,0,359.41-79.16,469.87-227.82.32-.44.66-.85.98-1.29l-187.98-156.95-5.62-4.69Z"/>
      <path class="cls-5" d="M1150,926.32c1.39-199.55,172.14-342.46,371.7-343.18,85.33-.3,163.57,36.35,225.92,85.07-4.77-6.35-9.41-11.94-14.48-18.14-92.7-113.22-234.83-199.36-392.8-199.38-280.9-.03-437.83,230.72-437.8,480.34.03,264.28,196.71,478.15,461.25,478.15,138.34,0,263-83.48,350.63-183.04,11.87-13.49,22.78-26.61,33.23-40.52-62.03,48.46-139.8,86.61-224.61,86.61-202.79,0-374.45-142.8-373.03-345.92Z"/>
    </g>
    <g>
      <polyline class="cls-3" points="366.92 1233.64 366.92 275.41 63.79 0 63.79 275.41 63.79 1233.64 63.79 1536.76"/>
      <path class="cls-4" d="M63.79,1536.76h1127.17c-237.37-150.82-282.57-303.13-282.57-303.13H366.92"/>
      <path class="cls-2" d="M1190.97,1536.76c-174.26-112.88-255.07-245.83-255.07-245.83,0,0-150.99,109.31-383.78,127.11-367.19,28.07-488.32,118.72-488.32,118.72h1127.17Z"/>
      <path class="cls-1" d="M261,526.74C280.41,191.02,64.75.86,64.75.86l302.17,274.55v785.56s-124.97-204.86-105.92-534.23Z"/>
    </g>
  </g>
  <g>
    <polygon class="cls-10" points="32.67 1866.03 2.49 1866.03 0 1866.03 0 1673.2 32.67 1673.2 32.67 1832.87 32.67 1866.03"/>
    <polygon class="cls-10" points="1134.17 1867.64 1100.05 1867.64 1097.23 1867.64 1097.23 1673.08 1134.17 1673.08 1134.17 1834.18 1134.17 1867.64"/>
    <polygon class="cls-10" points="1437.63 1867.64 1403.51 1867.64 1400.7 1867.64 1400.7 1673.08 1437.63 1673.08 1437.63 1834.18 1437.63 1867.64"/>
    <polygon class="cls-10" points="2015.17 1867.64 1981.05 1867.64 1978.24 1867.64 1978.24 1673.08 2015.17 1673.08 2015.17 1834.18 2015.17 1867.64"/>
    <polygon class="cls-10" points="1246.67 1831.14 1246.67 1671.55 1209.74 1671.55 1209.74 1866.12 1212.55 1866.12 1246.67 1866.12 1246.67 1866.12 1348.72 1866.12 1348.72 1863.45 1348.72 1831.14 1246.67 1831.14"/>
    <polygon class="cls-10" points="246.56 1673.2 246.56 1805.14 141.45 1673.2 108.29 1673.2 108.29 1867.52 110.81 1867.52 141.45 1867.52 141.45 1834.36 141.45 1728.36 246.56 1865.07 279.36 1865.07 279.36 1673.2 246.56 1673.2"/>
    <path class="cls-10" d="M711.48,1666.61c-56.89,0-103,46.12-103,103s46.12,103,103,103,103-46.12,103-103-46.12-103-103-103ZM708.84,1839.48c-36.24,0-63.09-32.49-63.09-68.73s29.5-71.07,65.74-71.07,65.74,34.84,65.74,71.07-32.15,68.73-68.39,68.73Z"/>
    <path class="cls-10" d="M1003.03,1763.27s21.91-14.26,22.26-39.3c.28-20.09-7.59-32.65-16.42-40.39-8.96-7.86-20.67-11.86-32.59-11.86h-99.84v194.23h101.33c11.89,0,23.67-3.21,33.55-9.83,12.3-8.24,24.56-23.13,24.39-49.73,0,0,1.04-34.43-32.69-43.12ZM909.13,1701.96h58.95c5.83,0,11.61,1.73,16.18,5.35,4.62,3.67,8.85,9.71,8.69,19.51-.13,8.02-2.8,13.52-6.09,17.27-4.4,5.01-10.95,7.6-17.62,7.6h-60.1v-49.73ZM975.99,1835.16h-66.86v-53.9h67.9c7.43,0,14.72,2.9,19.62,8.5,3.55,4.05,6.38,9.91,6.38,18.27s-2.93,14.27-6.6,18.39c-5.14,5.77-12.72,8.75-20.44,8.75Z"/>
    <polygon class="cls-10" points="504.9 1672.59 446.41 1761.84 387.91 1672.59 349.43 1672.59 349.43 1866.63 352.17 1866.63 385.38 1866.63 385.38 1833.26 385.38 1729.67 445.62 1823.97 507.43 1727.78 507.43 1866.63 510.16 1866.63 543.38 1866.63 543.38 1833.26 543.38 1672.59 504.9 1672.59"/>
    <path class="cls-10" d="M2193.86,1668.03h-36.94l-83.8,199.61h36.23l17.91-47.9h92.7l18.96,47.9h39.39l-84.46-199.61ZM2143.48,1788.21l31.04-72.75,33.44,72.75h-64.48Z"/>
    <path class="cls-10" d="M1618.2,1669.03h-36.94l-83.8,199.61h36.23l17.91-47.9h92.7l18.96,47.9h39.39l-84.46-199.61ZM1567.83,1789.2l31.04-72.75,33.44,72.75h-64.48Z"/>
    <path class="cls-10" d="M1868.98,1794.35s43.5-11.16,42.81-57.88c-.91-60.68-57.77-64.91-57.77-64.91h-101.59v194.57h36.93v-60.35h48.47c2.55,6.01,38.81,60.35,38.81,60.35h43.94l-51.61-71.77ZM1839.79,1768.83h-50.43s0,0,0,0v-60.35h64.15c4.72,0,9.43,1.28,13.26,4.05,5.07,3.68,10.15,10.67,10.15,23.93,0,26.5-15.84,32.37-37.13,32.37Z"/>
  </g>
</svg>